<?xml version="1.0" encoding="UTF-8"?>
<svg version="1.1" xmlns="http://www.w3.org/2000/svg" width="512" height="512">
<path d="M0 0 C85.47 0 170.94 0 259 0 C261.09488417 81.84495727 261.09488417 81.84495727 261.91015625 114.03125 C262.09516548 121.33463667 262.28021653 128.63802227 262.46533203 135.94140625 C262.4993679 137.28446886 262.4993679 137.28446886 262.53409135 138.65466404 C262.86750484 151.80892773 263.20375384 164.96311651 263.54181373 178.11726153 C263.84996375 190.110463 264.15443017 202.10375335 264.45497227 214.09714794 C264.61607642 220.52036999 264.7787868 226.94354029 264.94595337 233.36660767 C265.3243793 247.9411535 265.67572195 262.51571501 265.946064 277.09270859 C265.98123661 278.98860452 266.01739115 280.88448257 266.05466843 282.78033829 C266.56894023 309.27921334 265.1842624 335.34983992 262.81335449 361.74133301 C262.47232604 365.57661694 262.14600408 369.41309364 261.82019138 373.24969578 C261.14669542 381.18016978 260.46436575 389.10990383 259.75610352 397.03735352 C259.66331367 398.09755959 259.66331367 398.09755959 259.56864929 399.17918396 C259.17916446 403.48941769 258.61351862 407.70536967 258 412 C173.19 412 88.38 412 1 412 C-7.68375675 309.96585819 -7.68375675 309.96585819 -6.55577087 265.99053955 C-6.52362928 264.71976814 -6.49148769 263.44899673 -6.45837212 262.1397171 C-6.42505854 260.82533409 -6.39174496 259.51095108 -6.35742188 258.15673828 C-6.28773333 255.31492834 -6.21915703 252.4730918 -6.15052795 249.6312561 C-6.00393949 243.584668 -5.85474238 237.53814916 -5.70362854 231.49167252 C-5.48516346 222.75012914 -5.27085785 214.00848742 -5.05747765 205.26681863 C-4.71093946 191.07445507 -4.36116579 176.88217325 -4.00927734 162.68994141 C-3.66802296 148.92631188 -3.32835057 135.16264476 -2.99072266 121.39892578 C-2.96960014 120.53792483 -2.94847761 119.67692388 -2.92671502 118.789832 C-2.76146683 112.05345419 -2.59630864 105.31707419 -2.43117881 98.58069348 C-1.62564555 65.72034136 -0.81228361 32.8601873 0 0 Z " fill="#3284C2" transform="translate(126,50)"/>
<path d="M0 0 C85.47 0 170.94 0 259 0 C261.09488417 81.84495727 261.09488417 81.84495727 261.91015625 114.03125 C262.09516548 121.33463667 262.28021653 128.63802227 262.46533203 135.94140625 C262.4993679 137.28446886 262.4993679 137.28446886 262.53409135 138.65466404 C262.86750484 151.80892773 263.20375384 164.96311651 263.54181373 178.11726153 C263.84996375 190.110463 264.15443017 202.10375335 264.45497227 214.09714794 C264.61607642 220.52036999 264.7787868 226.94354029 264.94595337 233.36660767 C265.3243793 247.9411535 265.67572195 262.51571501 265.946064 277.09270859 C265.98123661 278.98860452 266.01739115 280.88448257 266.05466843 282.78033829 C266.56894023 309.27921334 265.1842624 335.34983992 262.81335449 361.74133301 C262.47232604 365.57661694 262.14600408 369.41309364 261.82019138 373.24969578 C261.14669542 381.18016978 260.46436575 389.10990383 259.75610352 397.03735352 C259.66331367 398.09755959 259.66331367 398.09755959 259.56864929 399.17918396 C259.17916446 403.48941769 258.61351862 407.70536967 258 412 C173.19 412 88.38 412 1 412 C-7.68375675 309.96585819 -7.68375675 309.96585819 -6.55577087 265.99053955 C-6.52362928 264.71976814 -6.49148769 263.44899673 -6.45837212 262.1397171 C-6.42505854 260.82533409 -6.39174496 259.51095108 -6.35742188 258.15673828 C-6.28773333 255.31492834 -6.21915703 252.4730918 -6.15052795 249.6312561 C-6.00393949 243.584668 -5.85474238 237.53814916 -5.70362854 231.49167252 C-5.48516346 222.75012914 -5.27085785 214.00848742 -5.05747765 205.26681863 C-4.71093946 191.07445507 -4.36116579 176.88217325 -4.00927734 162.68994141 C-3.66802296 148.92631188 -3.32835057 135.16264476 -2.99072266 121.39892578 C-2.96960014 120.53792483 -2.94847761 119.67692388 -2.92671502 118.789832 C-2.76146683 112.05345419 -2.59630864 105.31707419 -2.43117881 98.58069348 C-1.62564555 65.72034136 -0.81228361 32.8601873 0 0 Z M17 23 C16.13536287 43.713293 16.13536287 43.713293 15.55827332 64.43139648 C15.53703588 65.43597397 15.51579845 66.44055145 15.49391747 67.47557068 C15.47199648 68.51480179 15.45007549 69.5540329 15.42749023 70.62475586 C15.37827896 72.87342249 15.32886465 75.12208468 15.27926636 77.3707428 C15.14692176 83.39968639 15.01756976 89.4286905 14.8889606 95.4577148 C14.78058663 100.52416934 14.67066419 105.59058983 14.56074673 110.65701109 C14.28636491 123.3045714 14.01483817 135.95219094 13.74473137 148.59984303 C13.52602878 158.83704216 13.30463283 169.0741802 13.08129883 179.3112793 C12.820256 191.27688457 12.56108201 203.24252822 12.30449444 215.20823008 C12.16927215 221.51379903 12.03333439 227.81935019 11.89541435 234.12486076 C11.76573472 240.05859468 11.63875718 245.99238085 11.51371384 251.92621422 C11.46787917 254.081418 11.42116551 256.23660333 11.37341881 258.39176559 C11.35123598 259.39539768 11.32905315 260.39902977 11.30619812 261.43307495 C11.28683764 262.29623731 11.26747715 263.15939966 11.24752998 264.04871845 C10.9871211 277.37956833 11 290.65423067 11 304 C44.66 304 78.32 304 113 304 C113 265.72 113 227.44 113 188 C123.89 188 134.78 188 146 188 C145.99476318 191.33633545 145.98952637 194.6726709 145.98413086 198.11010742 C145.9675702 209.12631761 145.95651882 220.14252834 145.94818783 231.15874767 C145.94296651 237.83866808 145.93588243 244.51857326 145.92456055 251.19848633 C145.91370507 257.6434625 145.90771749 264.08842641 145.90512276 270.53341103 C145.90327332 272.99381008 145.89966192 275.45420844 145.89426994 277.91460228 C145.88702428 281.35738965 145.88601056 284.80012617 145.88647461 288.24291992 C145.88287933 289.26287552 145.87928406 290.28283112 145.87557983 291.33369446 C145.87764183 292.74496109 145.87764183 292.74496109 145.87974548 294.18473816 C145.87882369 294.99868136 145.8779019 295.81262457 145.87695217 296.65123272 C145.96758335 299.46428708 145.96758335 299.46428708 147 304 C180.33 304 213.66 304 248 304 C248 284.30477369 247.99468242 264.65559747 247.55688477 244.97363281 C247.50894886 242.69580195 247.46132155 240.41796457 247.41397095 238.14012146 C247.28709054 232.08139585 247.15575674 226.02277516 247.0232861 219.9641695 C246.88405459 213.56875106 246.74847609 207.17325486 246.61228943 200.777771 C246.36916474 189.38964906 246.12243291 178.00160961 245.87418371 166.61359856 C245.6499243 156.32140938 245.42944416 146.02914478 245.21166992 135.73681641 C244.92973074 122.41206391 244.64418255 109.08739393 244.35578728 95.76277924 C244.24642023 90.70576443 244.13847162 85.64872237 244.03170967 80.59165192 C243.9060196 74.64538555 243.77686891 68.69920392 243.6451149 62.75306892 C243.59755818 60.58199453 243.55117008 58.41089415 243.50608253 56.23976707 C243.4440017 53.25988126 243.37754613 50.28012197 243.31007385 47.300354 C243.29353195 46.4577349 243.27699005 45.6151158 243.25994688 44.74696279 C243.08708056 37.45628473 242.52171654 30.30403162 242 23 C167.75 23 93.5 23 17 23 Z " fill="#000000" transform="translate(126,50)"/>
<path d="M0 0 C33.33 0 66.66 0 101 0 C101 12.37656241 101 12.37656241 100.55688477 18.36401367 C100.50972321 19.01601242 100.46256165 19.66801117 100.41397095 20.33976746 C100.26035454 22.44947629 100.10103801 24.5587073 99.94140625 26.66796875 C99.83140702 28.15763724 99.72170712 29.64732786 99.61228943 31.13703918 C99.38359005 34.23925606 99.15221425 37.34125706 98.91870117 40.44311523 C98.62090962 44.39996948 98.32848436 48.35719717 98.03788853 52.31458569 C97.81217868 55.38349077 97.58433398 58.45223433 97.35578728 61.52092934 C97.24726784 62.97960115 97.13923215 64.43830904 97.03170967 65.89705467 C96.8806915 67.93958586 96.72696943 69.98189645 96.57250977 72.02416992 C96.48590591 73.18123947 96.39930206 74.33830902 96.31007385 75.53044128 C95.96753991 79.36321088 95.47729127 83.18166982 95 87 C63.32 87 31.64 87 -1 87 C-1.020625 73.01625 -1.04125 59.0325 -1.0625 44.625 C-1.071604 40.20561035 -1.08070801 35.7862207 -1.09008789 31.23291016 C-1.09460449 25.84643555 -1.09460449 25.84643555 -1.09544373 23.32675171 C-1.09698177 21.56267037 -1.10050385 19.7985901 -1.10557556 18.03451538 C-1.11286493 15.36625332 -1.11390701 12.69805564 -1.11352539 10.02978516 C-1.1171235 9.24067057 -1.12072161 8.45155598 -1.12442875 7.63852882 C-1.11402634 2.22805267 -1.11402634 2.22805267 0 0 Z " fill="#194459" transform="translate(273,354)"/>
<path d="M0 0 C33.66 0 67.32 0 102 0 C102.33 28.71 102.66 57.42 103 87 C70.99 87 38.98 87 6 87 C5.195625 76.72875 4.39125 66.4575 3.5625 55.875 C3.31056885 52.68183105 3.0586377 49.48866211 2.79907227 46.19873047 C2.59623795 43.58823781 2.39366635 40.97772471 2.19140625 38.3671875 C2.08856323 37.07627197 1.98572021 35.78535645 1.87976074 34.45532227 C0.9951453 22.96481079 0.52422376 11.53292272 0 0 Z " fill="#194459" transform="translate(137,354)"/>
<path d="M0 0 C10.89 0 21.78 0 33 0 C33 18.15 33 36.3 33 55 C22.11 55 11.22 55 0 55 C0 36.85 0 18.7 0 0 Z " fill="#000000" transform="translate(239,127)"/>
</svg>
